# xmcd
#
# Track frame offsets: 
#        150
#        13197
#        25947
#        39747
#        53567
#        65005
#        78432
#        92172
#        104642
#        119760
#        133765
#        149592
#        162787
#        174052
#        184960
#        200977
#        213675
#        226150
#        235615
#        248752
#
# Disc length: 3479 seconds
#
# Revision: 3
# Processed by: cddbd v1.5.2PL0 Copyright (c) Steve Scherf et al.
# Submitted via: ExactAudioCopy v0.99pb5
#
DISCID=250d9514
DTITLE=Percy Sledge - The Ultimate Collection
DYEAR=1987
DGENRE=Soul
TTITLE0=When a man loves a woman
TTITLE1=It tears me up
TTITLE2=Take time to know her
TTITLE3=My special prayer
TTITLE4=Baby, help me
TTITLE5=It's all wrong but it's allright
TTITLE6=You're all around me
TTITLE7=The dark end of the street
TTITLE8=Warm and tender love
TTITLE9=Love me tender
TTITLE10=Out of left field
TTITLE11=Come softly to me
TTITLE12=What am I living for?
TTITLE13=You're pouring water on a drowning man
TTITLE14=Just out of reach
TTITLE15=Cover me
TTITLE16=Sudden stop
TTITLE17=That's how strong my love is
TTITLE18=You really got a hold on me
TTITLE19=Put a little lovin' on me
EXTD=
EXTT0=
EXTT1=
EXTT2=
EXTT3=
EXTT4=
EXTT5=
EXTT6=
EXTT7=
EXTT8=
EXTT9=
EXTT10=
EXTT11=
EXTT12=
EXTT13=
EXTT14=
EXTT15=
EXTT16=
EXTT17=
EXTT18=
EXTT19=
PLAYORDER=
